name rise36.2859peak64.2979fall75.1499.mot
datacolumns 19
datarows 12
range 2.31832400000000 2.33669500000000
endheader
time	ground_force1_vx	ground_force1_vy	ground_force1_vz	ground_force1_px	ground_force1_py	ground_force1_pz	ground_force2_vx	ground_force2_vy	ground_force2_vz	ground_force2_px	ground_force2_py	ground_force2_pz	ground_torque1_x	ground_torque1_y	ground_torque1_z	ground_torque2_x	ground_torque2_y	ground_torque2_z	
2.31832400000000	1.26594400000000	708.67797299999995	41.50440000000000	0.27712500000000	0.00000000000000	0.09042100000000	0.00000000000000	0.00000000000000	0.00000000000000	0.00000000000000	0.00000000000000	0.00000000000000	0.00000000000000	24.34100400000000	0.00000000000000	0.00000000000000	0.00000000000000	0.00000000000000	
2.31999400000000	0.73135500000000	709.65681199999995	41.54995600000000	0.27645400000000	0.00000000000000	0.09045900000000	0.00000000000000	0.00000000000000	0.00000000000000	0.00000000000000	0.00000000000000	0.00000000000000	0.00000000000000	24.43950300000000	0.00000000000000	0.00000000000000	0.00000000000000	0.00000000000000	
2.32166000000000	0.18359900000000	710.65529200000003	41.59525700000000	0.27577100000000	0.00000000000000	0.09049700000000	0.00000000000000	0.00000000000000	0.00000000000000	0.00000000000000	0.00000000000000	0.00000000000000	0.00000000000000	24.53907100000000	0.00000000000000	0.00000000000000	0.00000000000000	0.00000000000000	
2.32332800000000	-0.37745900000000	711.67332799999997	41.64025100000000	0.27507600000000	0.00000000000000	0.09053300000000	0.00000000000000	0.00000000000000	0.00000000000000	0.00000000000000	0.00000000000000	0.00000000000000	0.00000000000000	24.63961500000000	0.00000000000000	0.00000000000000	0.00000000000000	0.00000000000000	
2.32499100000000	-0.95191200000000	712.71092499999997	41.68490300000000	0.27436700000000	0.00000000000000	0.09056900000000	0.00000000000000	0.00000000000000	0.00000000000000	0.00000000000000	0.00000000000000	0.00000000000000	0.00000000000000	24.74104800000000	0.00000000000000	0.00000000000000	0.00000000000000	0.00000000000000	
2.32667200000000	-1.53981200000000	713.76817500000004	41.72919100000000	0.27364400000000	0.00000000000000	0.09060500000000	0.00000000000000	0.00000000000000	0.00000000000000	0.00000000000000	0.00000000000000	0.00000000000000	0.00000000000000	24.84328700000000	0.00000000000000	0.00000000000000	0.00000000000000	0.00000000000000	
2.32832300000000	-2.14116600000000	714.84525499999995	41.77311100000000	0.27290500000000	0.00000000000000	0.09064000000000	0.00000000000000	0.00000000000000	0.00000000000000	0.00000000000000	0.00000000000000	0.00000000000000	0.00000000000000	24.94625500000000	0.00000000000000	0.00000000000000	0.00000000000000	0.00000000000000	
2.32998900000000	-2.75594300000000	715.94241899999997	41.81667300000000	0.27215000000000	0.00000000000000	0.09067500000000	0.00000000000000	0.00000000000000	0.00000000000000	0.00000000000000	0.00000000000000	0.00000000000000	0.00000000000000	25.04987600000000	0.00000000000000	0.00000000000000	0.00000000000000	0.00000000000000	
2.33165700000000	-3.38406600000000	717.05999399999996	41.85990400000000	0.27137800000000	0.00000000000000	0.09071000000000	0.00000000000000	0.00000000000000	0.00000000000000	0.00000000000000	0.00000000000000	0.00000000000000	0.00000000000000	25.15408000000000	0.00000000000000	0.00000000000000	0.00000000000000	0.00000000000000	
2.33332900000000	-4.02541900000000	718.19837399999994	41.90284300000000	0.27058900000000	0.00000000000000	0.09074400000000	0.00000000000000	0.00000000000000	0.00000000000000	0.00000000000000	0.00000000000000	0.00000000000000	0.00000000000000	25.25880300000000	0.00000000000000	0.00000000000000	0.00000000000000	0.00000000000000	
2.33499100000000	-4.67984100000000	719.35801500000002	41.94554700000000	0.26978200000000	0.00000000000000	0.09077800000000	0.00000000000000	0.00000000000000	0.00000000000000	0.00000000000000	0.00000000000000	0.00000000000000	0.00000000000000	25.36398000000000	0.00000000000000	0.00000000000000	0.00000000000000	0.00000000000000	
2.33669500000000	-5.34713300000000	720.53942700000005	41.98808600000000	0.26895600000000	0.00000000000000	0.09081200000000	0.00000000000000	0.00000000000000	0.00000000000000	0.00000000000000	0.00000000000000	0.00000000000000	0.00000000000000	25.46955400000000	0.00000000000000	0.00000000000000	0.00000000000000	0.00000000000000	
